<svg width="14" height="14" viewBox="0 0 14 14" fill="none" xmlns="http://www.w3.org/2000/svg">
<path d="M13.0317 5.4425L11.8651 4.85917C11.6492 4.75417 11.3809 4.83584 11.2759 5.05167C11.1651 5.27334 11.2526 5.53584 11.4684 5.64084L12.3959 6.10167V8.89584L10.2084 8.90167V2.91667C10.2084 1.75001 9.42675 1.16667 8.45841 1.16667H3.79175C2.82341 1.16667 2.04175 1.75001 2.04175 2.91667V12.3958H1.16675C0.927581 12.3958 0.729248 12.5942 0.729248 12.8333C0.729248 13.0725 0.927581 13.2708 1.16675 13.2708H11.0834C11.3226 13.2708 11.5209 13.0725 11.5209 12.8333C11.5209 12.5942 11.3226 12.3958 11.0834 12.3958H10.2084V9.77667L12.8334 9.77084C13.0784 9.77084 13.2709 9.5725 13.2709 9.33334V5.83334C13.2709 5.67 13.1776 5.51834 13.0317 5.4425ZM3.50008 4.01917C3.50008 3.20834 3.99591 2.91667 4.60258 2.91667H7.65341C8.25425 2.91667 8.75008 3.20834 8.75008 4.01917V4.73667C8.75008 5.54167 8.25425 5.83334 7.64758 5.83334H4.60258C3.99591 5.83334 3.50008 5.54167 3.50008 4.73084V4.01917ZM3.79175 7.14584H5.54175C5.78091 7.14584 5.97925 7.34417 5.97925 7.58334C5.97925 7.8225 5.78091 8.02084 5.54175 8.02084H3.79175C3.55258 8.02084 3.35425 7.8225 3.35425 7.58334C3.35425 7.34417 3.55258 7.14584 3.79175 7.14584Z" fill="#90A3BF"/>
</svg>