<svg width="30" height="30" viewBox="0 0 30 30" fill="none" xmlns="http://www.w3.org/2000/svg">
<path d="M10.8194 9.57718L13.664 6.72017V18.6327C13.664 18.9621 13.7949 19.2781 14.0278 19.511C14.2608 19.744 14.5767 19.8748 14.9062 19.8748C15.2356 19.8748 15.5516 19.744 15.7845 19.511C16.0175 19.2781 16.1483 18.9621 16.1483 18.6327V6.72017L18.9929 9.57718C19.1084 9.69361 19.2458 9.78602 19.3972 9.84909C19.5485 9.91215 19.7109 9.94462 19.8749 9.94462C20.0389 9.94462 20.2012 9.91215 20.3526 9.84909C20.504 9.78602 20.6413 9.69361 20.7568 9.57718C20.8732 9.46171 20.9657 9.32432 21.0287 9.17295C21.0918 9.02158 21.1243 8.85922 21.1243 8.69524C21.1243 8.53126 21.0918 8.3689 21.0287 8.21753C20.9657 8.06615 20.8732 7.92877 20.7568 7.81329L15.7881 2.84458C15.67 2.73149 15.5307 2.64284 15.3782 2.58372C15.0758 2.45948 14.7366 2.45948 14.4341 2.58372C14.2817 2.64284 14.1423 2.73149 14.0242 2.84458L9.0555 7.81329C8.93968 7.92911 8.84781 8.06661 8.78513 8.21793C8.72245 8.36926 8.69019 8.53145 8.69019 8.69524C8.69019 8.85903 8.72245 9.02122 8.78513 9.17254C8.84781 9.32387 8.93968 9.46137 9.0555 9.57718C9.17132 9.693 9.30882 9.78488 9.46014 9.84756C9.61146 9.91024 9.77365 9.9425 9.93745 9.9425C10.1012 9.9425 10.2634 9.91024 10.4148 9.84756C10.5661 9.78488 10.7036 9.693 10.8194 9.57718ZM26.0858 14.9061C25.7563 14.9061 25.4404 15.037 25.2074 15.27C24.9745 15.5029 24.8436 15.8189 24.8436 16.1483V23.6014C24.8436 23.9308 24.7127 24.2468 24.4798 24.4797C24.2468 24.7127 23.9309 24.8436 23.6014 24.8436H6.21091C5.88146 24.8436 5.56551 24.7127 5.33256 24.4797C5.0996 24.2468 4.96873 23.9308 4.96873 23.6014V16.1483C4.96873 15.8189 4.83786 15.5029 4.60491 15.27C4.37195 15.037 4.056 14.9061 3.72655 14.9061C3.39711 14.9061 3.08115 15.037 2.8482 15.27C2.61525 15.5029 2.48438 15.8189 2.48438 16.1483V23.6014C2.48438 24.5897 2.87699 25.5376 3.57585 26.2364C4.27471 26.9353 5.22257 27.3279 6.21091 27.3279H23.6014C24.5897 27.3279 25.5376 26.9353 26.2365 26.2364C26.9353 25.5376 27.3279 24.5897 27.3279 23.6014V16.1483C27.3279 15.8189 27.1971 15.5029 26.9641 15.27C26.7312 15.037 26.4152 14.9061 26.0858 14.9061Z" fill="#3563E9"/>
</svg>