<svg width="20" height="20" viewBox="0 0 20 20" fill="none" xmlns="http://www.w3.org/2000/svg">
<path d="M13.4917 1.66669H6.50832C3.47499 1.66669 1.66666 3.47502 1.66666 6.50835V13.4834C1.66666 16.525 3.47499 18.3334 6.50832 18.3334H13.4833C16.5167 18.3334 18.325 16.525 18.325 13.4917V6.50835C18.3333 3.47502 16.525 1.66669 13.4917 1.66669ZM13.9833 8.08335L9.25832 12.8084C9.14166 12.925 8.98332 12.9917 8.81666 12.9917C8.64999 12.9917 8.49166 12.925 8.37499 12.8084L6.01666 10.45C5.77499 10.2084 5.77499 9.80835 6.01666 9.56669C6.25832 9.32502 6.65832 9.32502 6.89999 9.56669L8.81666 11.4834L13.1 7.20002C13.3417 6.95835 13.7417 6.95835 13.9833 7.20002C14.225 7.44169 14.225 7.83335 13.9833 8.08335Z" fill="#3563E9"/>
</svg>
