<svg width="16" height="17" viewBox="0 0 16 17" xmlns="http://www.w3.org/2000/svg">
<g id="Plus" clip-path="url(#clip0_7072_3720)">
<g id="Iconly/Bold/Plus">
<g id="Plus_2">
<path id="Vector" d="M11.7281 0.49996C14.4481 0.49996 16.0002 2.03598 16.0002 4.764V12.2361C16.0002 14.9481 14.4561 16.5001 11.7361 16.5001H4.26404C1.53602 16.5001 0 14.9481 0 12.2361V4.764C0 2.03598 1.53602 0.49996 4.26404 0.49996H11.7281ZM7.99208 4.908C7.62408 4.908 7.32807 5.20401 7.32807 5.57201V7.82803H5.06405C4.88805 7.82803 4.72005 7.90003 4.59205 8.02004C4.47205 8.14804 4.40004 8.31524 4.40004 8.49204C4.40004 8.86004 4.69605 9.15605 5.06405 9.16405H7.32807V11.4281C7.32807 11.7961 7.62408 12.0921 7.99208 12.0921C8.36008 12.0921 8.65609 11.7961 8.65609 11.4281V9.16405H10.9281C11.2961 9.15605 11.5921 8.86004 11.5921 8.49204C11.5921 8.12404 11.2961 7.82803 10.9281 7.82803H8.65609V5.57201C8.65609 5.20401 8.36008 4.908 7.99208 4.908Z"/>
</g>
</g>
</g>
<defs>
<clipPath id="clip0_7072_3720">
<rect width="16" height="16" fill="white" transform="translate(0 0.5)"/>
</clipPath>
</defs>
</svg>
