<svg height="800px" width="800px" version="1.1" id="Capa_1" xmlns="http://www.w3.org/2000/svg" xmlns:xlink="http://www.w3.org/1999/xlink" 
	 viewBox="0 0 151.296 151.296" xml:space="preserve">
<g>
	<path style="fill:#010002;" d="M150.484,111.586V53.648h-13.24l-9.821-42.955H23.879l-9.821,42.955H0.817v57.938L0,115.131h0.817
		v5.758H10.8v19.715h29.834v-19.715h70.033v19.715h29.834v-19.715h9.977v-5.758h0.817L150.484,111.586z M31.135,88.435H10.746
		V68.046h20.389V88.435z M109.88,107.416H41.428v-5.967h68.452V107.416z M109.88,90.249H41.428v-5.967h68.452V90.249z
		 M109.88,73.088H41.428v-5.967h68.452V73.088z M117.046,53.648H99.45c-0.072-0.477-0.137-0.961-0.137-1.468
		c0-4.929,4.022-8.944,8.95-8.944s8.938,4.016,8.938,8.944C117.201,52.687,117.13,53.171,117.046,53.648z M108.251,37.269
		c-8.216,0-14.905,6.689-14.905,14.911c0,0.507,0.095,0.979,0.137,1.468H26.302l7.089-31.022h84.527l7.089,31.022h-1.993
		c0.048-0.489,0.149-0.961,0.149-1.468C123.168,43.958,116.479,37.269,108.251,37.269z M140.568,88.435h-20.383V68.046h20.383
		V88.435z"/>
</g>
</svg>